:SAMPLES-PER-SECOND 30
:FRAME-RANGE 1-4244
:FULLY-SPECIFIED
:DEGREES
2786
root  -47.5167 38.6477 54.8952 -173.226 53.054 -176.751
RightUpLeg  4.21927 -11.1142 -6.19411
RightLeg  7.01395 -23.5509 2.1951
RightFoot  -10.8669 -0.133917 14.3573
RightToes  -3.31784e-009 0 -3.6325e-017
Spine  8.40037 -0.217811 4.4672
Spine1  -0.557475 0.471793 -1.18056
HEad  2.70388 -26.4286 3.0965
LeftShoulder1  0.98894 0.737037 -29.6585
LeftArm  -1.16789 7.89096 -28.3395
LeftForeArm  13.4761 -28.7505 -5.49253
LeftHand  0.0132863 -1.52549 -0.0843612
RightShoulder  7.56348 10.5825 47.0111
RightArm  22.8239 -0.198593 16.9055
RightForeArm  1.60563 28.3877 6.05871
RightHand  0.0205518 3.60009 0.0123572
LeftUpLeg  -20.5934 24.3102 11.4377
LeftLeg  32.9258 6.12421 4.5991
LeftFoot  -8.46142 0.142005 -3.62986
LeftToes  1.0277e-010 -6.71454e-011 3.04227e-011
2787
root  -48.0058 38.6847 54.0722 -173.841 49.4521 -177.952
RightUpLeg  5.29052 -12.3758 -8.45635
RightLeg  6.00161 -25.2691 2.88848
RightFoot  -9.61702 -0.310451 16.1605
RightToes  -3.31784e-009 0 -3.6325e-017
Spine  7.95841 -0.715943 2.1449
Spine1  -0.43043 -0.482029 0.0964716
HEad  3.01231 -27.5219 3.54954
LeftShoulder1  0.999063 0.678388 -29.2692
LeftArm  -0.774572 7.48126 -28.531
LeftForeArm  14.2574 -28.8521 -5.47309
LeftHand  0.0294236 -1.72163 -0.329143
RightShoulder  6.7947 9.2039 46.8183
RightArm  26.3362 -2.02523 17.0054
RightForeArm  -0.0454346 27.1656 5.85596
RightHand  0.039091 3.7487 0.237356
LeftUpLeg  -18.8498 26.2894 11.096
LeftLeg  28.3127 9.88585 6.05592
LeftFoot  -8.47582 0.149479 -3.94364
LeftToes  1.0277e-010 -6.71454e-011 3.04227e-011
2788
root  -48.541 38.6475 53.0769 -174.491 45.276 -179.368
RightUpLeg  6.47278 -14.1294 -11.4271
RightLeg  5.9196 -26.6318 3.31213
RightFoot  -8.51519 -0.522126 18.6475
RightToes  -3.31784e-009 0 -3.6325e-017
Spine  7.84501 -1.17065 0.313931
Spine1  -0.878037 -1.24016 0.730829
HEad  3.4894 -29.1381 3.46271
LeftShoulder1  1.05229 0.513865 -29.1032
LeftArm  0.508543 6.79629 -28.8771
LeftForeArm  14.7258 -29.2268 -5.53538
LeftHand  0.0299641 -1.75001 -0.33414
RightShoulder  5.60529 7.13377 46.1335
RightArm  30.9971 -4.33293 17.1621
RightForeArm  -2.54723 25.1797 5.52664
RightHand  0.032033 3.71084 0.15096
LeftUpLeg  -17.7615 27.9043 8.90808
LeftLeg  24.0866 11.5803 5.93031
LeftFoot  -7.55401 0.179112 -4.04636
LeftToes  1.0277e-010 -6.71454e-011 3.04227e-011
2789
root  -49.1473 38.5866 51.912 -175.654 41.0381 178.615
RightUpLeg  7.67166 -17.5343 -15.7544
RightLeg  7.70361 -25.8057 2.62873
RightFoot  -7.17762 -0.881198 22.6073
RightToes  -3.31784e-009 0 -3.6325e-017
Spine  7.56791 -1.62911 -1.28959
Spine1  -0.643658 -1.79592 0.331548
HEad  3.52049 -30.6187 3.46063
LeftShoulder1  1.09695 0.374525 -28.9624
LeftArm  1.28083 5.90043 -29.8769
LeftForeArm  15.8284 -29.8953 -5.63274
LeftHand  0.0283161 -1.77579 -0.303819
RightShoulder  4.49911 5.21105 45.182
RightArm  36.4474 -6.70366 17.098
RightForeArm  -6.33477 22.6228 5.56244
RightHand  0.055118 3.82929 0.431507
LeftUpLeg  -15.8931 26.7432 6.04978
LeftLeg  19.9475 9.86172 4.26801
LeftFoot  -4.92234 0.629407 -10.6763
LeftToes  1.0277e-010 -6.71454e-011 3.04227e-011
2790
root  -49.8321 38.4434 50.711 -177.128 37.3019 176.042
RightUpLeg  6.76358 -28.2572 -20.9566
RightLeg  14.227 -16.6771 -2.98839
RightFoot  -5.45736 -1.51288 28.1609
RightToes  -3.31784e-009 0 -3.6325e-017
Spine  7.99072 -1.5995 -3.7745
Spine1  -0.917539 -2.00232 0.0743166
HEad  3.41121 -31.7696 3.40956
LeftShoulder1  1.13569 0.309029 -29.4663
LeftArm  1.94222 4.54462 -30.8506
LeftForeArm  17.3769 -30.6604 -5.72964
LeftHand  0.00671336 -1.66636 0.0386124
RightShoulder  3.65195 3.67362 44.5219
RightArm  37.2287 -9.16724 16.0519
RightForeArm  -5.30085 19.3255 8.08847
RightHand  0.11354 3.87524 1.15796
LeftUpLeg  -16.5978 27.264 1.63014
LeftLeg  21.2741 5.70227 2.77997
LeftFoot  -7.45649 0.355617 -9.15637
LeftToes  1.0277e-010 -6.71454e-011 3.04227e-011
2791
root  -50.5318 38.3259 49.5807 -178.457 33.8419 174.046
RightUpLeg  2.09322 -22.2465 -22.5036
RightLeg  25.9821 -20.6391 -10.7881
RightFoot  -1.56398 -2.4465 27.9483
RightToes  -3.31784e-009 0 -3.6325e-017
Spine  9.548 -1.37284 -5.45085
Spine1  -1.67646 -2.01044 -0.0868561
HEad  3.19342 -31.4387 3.44886
LeftShoulder1  1.14929 0.304243 -29.8443
LeftArm  2.8286 2.42575 -32.1859
LeftForeArm  17.1234 -30.8727 -5.79562
LeftHand  0.0014559 -1.63737 0.123423
RightShoulder  2.95177 2.27382 44.7423
RightArm  30.516 -10.5343 14.8314
RightForeArm  2.87022 13.3424 12.8549
RightHand  0.145104 3.89716 1.54805
LeftUpLeg  -16.3666 24.7501 -1.99219
LeftLeg  22.3755 4.93908 2.57296
LeftFoot  -9.4674 0.183278 -7.73414
LeftToes  1.0277e-010 -6.71454e-011 3.04227e-011
2792
root  -51.1468 38.4082 48.4369 -178.898 31.1707 174.239
RightUpLeg  -3.75381 -14.5364 -21.475
RightLeg  38.1851 -19.0402 -15.6131
RightFoot  4.59903 -1.95465 14.122
RightToes  -3.31784e-009 0 -3.6325e-017
Spine  10.6929 -1.2702 -4.98408
Spine1  -1.35511 -1.91953 -0.234647
HEad  2.56972 -28.6539 2.6799
LeftShoulder1  1.20895 0.152273 -30.0001
LeftArm  3.00973 0.796382 -33.8409
LeftForeArm  17.4882 -31.3032 -5.88021
LeftHand  0.00843783 -1.70281 0.0133117
RightShoulder  2.84707 2.07073 44.733
RightArm  22.2207 -11.6661 14.1164
RightForeArm  10.8905 6.18473 16.2591
RightHand  0.197033 3.89196 2.19829
LeftUpLeg  -14.5497 21.936 -3.31413
LeftLeg  21.979 5.52295 2.79159
LeftFoot  -10.7093 0.0974046 -6.02984
LeftToes  1.0277e-010 -6.71454e-011 3.04227e-011
2793
root  -51.5275 38.3515 47.431 -179.349 28.6398 174.533
RightUpLeg  -8.56154 -10.418 -19.5991
RightLeg  46.4508 -10.2444 -11.6321
RightFoot  1.13057 -1.59273 14.5748
RightToes  -3.31784e-009 0 -3.6325e-017
Spine  11.3925 -1.29754 -5.85938
Spine1  -0.342101 -2.26886 -0.0431056
HEad  2.70566 -23.9497 1.6125
LeftShoulder1  1.23637 0.0814634 -30.0565
LeftArm  3.57536 -0.569436 -35.0174
LeftForeArm  18.7153 -31.9593 -5.97216
LeftHand  -0.00737852 -1.54237 0.26512
RightShoulder  2.96293 2.21589 45.3928
RightArm  18.471 -12.1797 13.7558
RightForeArm  13.7472 1.15554 17.5869
RightHand  0.283569 3.77585 3.32927
LeftUpLeg  -13.0404 18.9796 -3.88977
LeftLeg  22.769 5.94019 2.95033
LeftFoot  -12.4729 0.0243372 -5.09876
LeftToes  1.0277e-010 -6.71454e-011 3.04227e-011
2794
root  -51.7364 38.3768 46.3589 -179.423 25.9783 175.324
RightUpLeg  -13.3183 -9.54068 -16.1607
RightLeg  53.6172 -7.93312 -11.757
RightFoot  -1.32374 -1.14802 12.944
RightToes  -3.31784e-009 0 -3.6325e-017
Spine  12.0527 -1.49495 -7.00943
Spine1  -0.06038 -2.95998 1.20159
HEad  3.75793 -18.7854 0.389685
LeftShoulder1  1.24743 0.0451017 -29.9963
LeftArm  4.02405 -1.13791 -36.3165
LeftForeArm  19.7007 -32.5542 -6.06415
LeftHand  0.00296466 -1.71798 0.104429
RightShoulder  2.81586 1.84721 46.1475
RightArm  19.2691 -12.4826 13.4425
RightForeArm  13.5801 -0.819354 18.123
RightHand  0.322831 3.63176 3.89749
LeftUpLeg  -10.8696 15.8792 -3.55401
LeftLeg  22.5862 6.40364 2.56143
LeftFoot  -14.0195 -0.02429 -4.63022
LeftToes  1.0277e-010 -6.71454e-011 3.04227e-011
2795
root  -51.8878 38.5265 45.1824 -178.979 24.0741 176.271
RightUpLeg  -18.2292 -9.6848 -11.9336
RightLeg  57.1703 -9.08953 -15.2059
RightFoot  -3.7985 -0.838659 12.2843
RightToes  -3.31784e-009 0 -3.6325e-017
Spine  11.5853 -1.89609 -7.53146
Spine1  0.54754 -3.53816 2.06234
HEad  4.9051 -13.1626 -0.604851
LeftShoulder1  1.24423 0.0158452 -29.5963
LeftArm  3.73568 -0.919641 -37.4417
LeftForeArm  20.642 -33.8844 -6.34893
LeftHand  0.0247235 -1.8641 -0.234643
RightShoulder  2.56418 1.35758 46.2781
RightArm  17.933 -13.0146 14.0457
RightForeArm  15.9692 -1.4834 17.9467
RightHand  0.327286 3.80784 3.86636
LeftUpLeg  -8.06969 12.5981 -2.82592
LeftLeg  20.5484 8.21613 1.60957
LeftFoot  -14.9265 -0.0509008 -4.48203
LeftToes  1.0277e-010 -6.71454e-011 3.04227e-011
2796
root  -52.032 38.6994 43.9501 -178.28 22.6592 177.495
RightUpLeg  -22.4569 -9.89678 -7.28582
RightLeg  55.703 -10.2328 -16.0509
RightFoot  -5.47338 -0.616522 11.2654
RightToes  -3.31784e-009 0 -3.6325e-017
Spine  11.0967 -2.38878 -7.33714
Spine1  0.821655 -4.0144 2.82014
HEad  5.35572 -8.0861 -1.41307
LeftShoulder1  1.19934 0.130221 -29.4715
LeftArm  3.56218 -0.62142 -37.8868
LeftForeArm  22.0895 -35.5791 -6.71099
LeftHand  0.0465925 -2.00793 -0.562214
RightShoulder  2.26087 0.806208 46.0462
RightArm  18.9192 -13.7319 14.6698
RightForeArm  15.5014 0.65624 17.6024
RightHand  0.328351 3.91634 3.82684
LeftUpLeg  -5.01679 9.60252 -2.04088
LeftLeg  17.5953 9.99887 0.645934
LeftFoot  -15.3471 -0.048596 -4.01794
LeftToes  1.0277e-010 -6.71454e-011 3.04227e-011
2797
root  -52.1898 38.7861 42.7003 -177.596 21.2203 178.903
RightUpLeg  -25.413 -10.1003 -2.65974
RightLeg  49.5934 -11.2399 -14.1096
RightFoot  -5.73141 -0.59312 11.2724
RightToes  -3.31784e-009 0 -3.6325e-017
Spine  10.6712 -2.9598 -6.45495
Spine1  1.3847 -4.43537 3.16936
HEad  4.73396 -4.11731 -1.59992
LeftShoulder1  1.21204 0.0746908 -29.2633
LeftArm  2.63774 -0.686095 -38.5674
LeftForeArm  23.3883 -37.0749 -7.04315
LeftHand  0.0410713 -1.78732 -0.509514
RightShoulder  2.16636 0.671461 45.5378
RightArm  22.0145 -14.7614 15.52
RightForeArm  12.2361 4.73918 16.7174
RightHand  0.331287 3.9529 3.8457
LeftUpLeg  -2.09784 8.42961 -1.22522
LeftLeg  15.0128 9.72922 -0.278954
LeftFoot  -15.8106 -0.0134757 -2.77361
LeftToes  1.0277e-010 -6.71454e-011 3.04227e-011
